<mxfile host="app.diagrams.net" agent="Mozilla/5.0 (Windows NT 10.0; Win64; x64) AppleWebKit/537.36 (KHTML, like Gecko) Chrome/126.0.0.0 Safari/537.36" version="24.7.6">
  <diagram name="PÃ¡gina-1" id="IgSUoFEaP8rtCFlcVUGl">
    <mxGraphModel dx="611" dy="426" grid="1" gridSize="10" guides="1" tooltips="1" connect="1" arrows="1" fold="1" page="1" pageScale="1" pageWidth="827" pageHeight="1169" math="0" shadow="0">
      <root>
        <mxCell id="0" />
        <mxCell id="1" parent="0" />
        <mxCell id="e2OuPpJRNAq6PMt-S8a--5" value="" style="edgeStyle=orthogonalEdgeStyle;rounded=0;orthogonalLoop=1;jettySize=auto;html=1;" parent="1" source="e2OuPpJRNAq6PMt-S8a--1" target="e2OuPpJRNAq6PMt-S8a--4" edge="1">
          <mxGeometry relative="1" as="geometry" />
        </mxCell>
        <mxCell id="e2OuPpJRNAq6PMt-S8a--14" value="" style="edgeStyle=orthogonalEdgeStyle;rounded=0;orthogonalLoop=1;jettySize=auto;html=1;" parent="1" source="e2OuPpJRNAq6PMt-S8a--1" target="e2OuPpJRNAq6PMt-S8a--8" edge="1">
          <mxGeometry relative="1" as="geometry">
            <Array as="points">
              <mxPoint x="150" y="120" />
              <mxPoint x="150" y="155" />
            </Array>
          </mxGeometry>
        </mxCell>
        <mxCell id="e2OuPpJRNAq6PMt-S8a--17" style="edgeStyle=orthogonalEdgeStyle;rounded=0;orthogonalLoop=1;jettySize=auto;html=1;" parent="1" source="e2OuPpJRNAq6PMt-S8a--1" target="e2OuPpJRNAq6PMt-S8a--7" edge="1">
          <mxGeometry relative="1" as="geometry" />
        </mxCell>
        <mxCell id="e2OuPpJRNAq6PMt-S8a--18" style="edgeStyle=orthogonalEdgeStyle;rounded=0;orthogonalLoop=1;jettySize=auto;html=1;entryX=1;entryY=0.5;entryDx=0;entryDy=0;" parent="1" source="e2OuPpJRNAq6PMt-S8a--1" target="e2OuPpJRNAq6PMt-S8a--6" edge="1">
          <mxGeometry relative="1" as="geometry" />
        </mxCell>
        <mxCell id="e2OuPpJRNAq6PMt-S8a--19" style="edgeStyle=orthogonalEdgeStyle;rounded=0;orthogonalLoop=1;jettySize=auto;html=1;entryX=1;entryY=0.5;entryDx=0;entryDy=0;" parent="1" source="e2OuPpJRNAq6PMt-S8a--1" target="e2OuPpJRNAq6PMt-S8a--9" edge="1">
          <mxGeometry relative="1" as="geometry" />
        </mxCell>
        <mxCell id="e2OuPpJRNAq6PMt-S8a--20" style="edgeStyle=orthogonalEdgeStyle;rounded=0;orthogonalLoop=1;jettySize=auto;html=1;entryX=1;entryY=0.5;entryDx=0;entryDy=0;" parent="1" source="e2OuPpJRNAq6PMt-S8a--1" target="e2OuPpJRNAq6PMt-S8a--10" edge="1">
          <mxGeometry relative="1" as="geometry" />
        </mxCell>
        <mxCell id="e2OuPpJRNAq6PMt-S8a--21" style="edgeStyle=orthogonalEdgeStyle;rounded=0;orthogonalLoop=1;jettySize=auto;html=1;entryX=1;entryY=0.5;entryDx=0;entryDy=0;" parent="1" source="e2OuPpJRNAq6PMt-S8a--1" target="e2OuPpJRNAq6PMt-S8a--11" edge="1">
          <mxGeometry relative="1" as="geometry" />
        </mxCell>
        <mxCell id="e2OuPpJRNAq6PMt-S8a--22" style="edgeStyle=orthogonalEdgeStyle;rounded=0;orthogonalLoop=1;jettySize=auto;html=1;entryX=1;entryY=0.5;entryDx=0;entryDy=0;" parent="1" source="e2OuPpJRNAq6PMt-S8a--1" target="e2OuPpJRNAq6PMt-S8a--12" edge="1">
          <mxGeometry relative="1" as="geometry" />
        </mxCell>
        <mxCell id="e2OuPpJRNAq6PMt-S8a--25" style="edgeStyle=orthogonalEdgeStyle;rounded=0;orthogonalLoop=1;jettySize=auto;html=1;entryX=0;entryY=0.5;entryDx=0;entryDy=0;" parent="1" source="e2OuPpJRNAq6PMt-S8a--1" target="e2OuPpJRNAq6PMt-S8a--24" edge="1">
          <mxGeometry relative="1" as="geometry" />
        </mxCell>
        <mxCell id="e2OuPpJRNAq6PMt-S8a--34" style="edgeStyle=orthogonalEdgeStyle;rounded=0;orthogonalLoop=1;jettySize=auto;html=1;entryX=0.5;entryY=0;entryDx=0;entryDy=0;" parent="1" source="e2OuPpJRNAq6PMt-S8a--1" target="e2OuPpJRNAq6PMt-S8a--33" edge="1">
          <mxGeometry relative="1" as="geometry" />
        </mxCell>
        <mxCell id="e2OuPpJRNAq6PMt-S8a--1" value="&lt;font style=&quot;font-size: 24px;&quot;&gt;&lt;b&gt;carreras&lt;/b&gt;&lt;/font&gt;" style="rounded=0;whiteSpace=wrap;html=1;" parent="1" vertex="1">
          <mxGeometry x="200" y="90" width="120" height="60" as="geometry" />
        </mxCell>
        <mxCell id="e2OuPpJRNAq6PMt-S8a--26" style="edgeStyle=orthogonalEdgeStyle;rounded=0;orthogonalLoop=1;jettySize=auto;html=1;entryX=1;entryY=0.5;entryDx=0;entryDy=0;" parent="1" source="e2OuPpJRNAq6PMt-S8a--2" target="e2OuPpJRNAq6PMt-S8a--24" edge="1">
          <mxGeometry relative="1" as="geometry" />
        </mxCell>
        <mxCell id="e2OuPpJRNAq6PMt-S8a--39" style="edgeStyle=orthogonalEdgeStyle;rounded=0;orthogonalLoop=1;jettySize=auto;html=1;entryX=0.5;entryY=1;entryDx=0;entryDy=0;" parent="1" source="e2OuPpJRNAq6PMt-S8a--2" target="e2OuPpJRNAq6PMt-S8a--36" edge="1">
          <mxGeometry relative="1" as="geometry" />
        </mxCell>
        <mxCell id="e2OuPpJRNAq6PMt-S8a--40" style="edgeStyle=orthogonalEdgeStyle;rounded=0;orthogonalLoop=1;jettySize=auto;html=1;entryX=0.5;entryY=1;entryDx=0;entryDy=0;" parent="1" source="e2OuPpJRNAq6PMt-S8a--2" target="e2OuPpJRNAq6PMt-S8a--37" edge="1">
          <mxGeometry relative="1" as="geometry" />
        </mxCell>
        <mxCell id="e2OuPpJRNAq6PMt-S8a--41" style="edgeStyle=orthogonalEdgeStyle;rounded=0;orthogonalLoop=1;jettySize=auto;html=1;" parent="1" source="e2OuPpJRNAq6PMt-S8a--2" target="e2OuPpJRNAq6PMt-S8a--38" edge="1">
          <mxGeometry relative="1" as="geometry" />
        </mxCell>
        <mxCell id="e2OuPpJRNAq6PMt-S8a--2" value="&lt;font style=&quot;font-size: 24px;&quot;&gt;&lt;b&gt;tipos_carreras&lt;/b&gt;&lt;/font&gt;" style="rounded=0;whiteSpace=wrap;html=1;" parent="1" vertex="1">
          <mxGeometry x="500" y="90" width="190" height="60" as="geometry" />
        </mxCell>
        <mxCell id="e2OuPpJRNAq6PMt-S8a--31" style="edgeStyle=orthogonalEdgeStyle;rounded=0;orthogonalLoop=1;jettySize=auto;html=1;entryX=0.5;entryY=0;entryDx=0;entryDy=0;" parent="1" source="e2OuPpJRNAq6PMt-S8a--3" target="e2OuPpJRNAq6PMt-S8a--29" edge="1">
          <mxGeometry relative="1" as="geometry" />
        </mxCell>
        <mxCell id="e2OuPpJRNAq6PMt-S8a--32" style="edgeStyle=orthogonalEdgeStyle;rounded=0;orthogonalLoop=1;jettySize=auto;html=1;entryX=0.5;entryY=0;entryDx=0;entryDy=0;" parent="1" source="e2OuPpJRNAq6PMt-S8a--3" target="e2OuPpJRNAq6PMt-S8a--30" edge="1">
          <mxGeometry relative="1" as="geometry" />
        </mxCell>
        <mxCell id="e2OuPpJRNAq6PMt-S8a--35" style="edgeStyle=orthogonalEdgeStyle;rounded=0;orthogonalLoop=1;jettySize=auto;html=1;entryX=0.5;entryY=1;entryDx=0;entryDy=0;" parent="1" source="e2OuPpJRNAq6PMt-S8a--3" target="e2OuPpJRNAq6PMt-S8a--33" edge="1">
          <mxGeometry relative="1" as="geometry" />
        </mxCell>
        <mxCell id="e2OuPpJRNAq6PMt-S8a--3" value="&lt;font style=&quot;font-size: 24px;&quot;&gt;&lt;b&gt;paises&lt;/b&gt;&lt;/font&gt;" style="rounded=0;whiteSpace=wrap;html=1;" parent="1" vertex="1">
          <mxGeometry x="270" y="320" width="120" height="60" as="geometry" />
        </mxCell>
        <mxCell id="e2OuPpJRNAq6PMt-S8a--4" value="&lt;font style=&quot;font-size: 14px;&quot;&gt;&lt;u&gt;&lt;b&gt;carrera_id&lt;/b&gt;&lt;/u&gt;&lt;/font&gt;" style="ellipse;whiteSpace=wrap;html=1;rounded=0;" parent="1" vertex="1">
          <mxGeometry x="205" y="10" width="110" height="50" as="geometry" />
        </mxCell>
        <mxCell id="e2OuPpJRNAq6PMt-S8a--6" value="&lt;span style=&quot;font-size: 14px;&quot;&gt;nombre&lt;/span&gt;" style="ellipse;whiteSpace=wrap;html=1;rounded=0;" parent="1" vertex="1">
          <mxGeometry x="10" y="10" width="110" height="50" as="geometry" />
        </mxCell>
        <mxCell id="e2OuPpJRNAq6PMt-S8a--7" value="&lt;span style=&quot;font-size: 14px;&quot;&gt;tipo_carrera&lt;/span&gt;" style="ellipse;whiteSpace=wrap;html=1;rounded=0;" parent="1" vertex="1">
          <mxGeometry x="10" y="70" width="110" height="50" as="geometry" />
        </mxCell>
        <mxCell id="e2OuPpJRNAq6PMt-S8a--8" value="&lt;span style=&quot;font-size: 14px;&quot;&gt;fecha&lt;/span&gt;" style="ellipse;whiteSpace=wrap;html=1;rounded=0;" parent="1" vertex="1">
          <mxGeometry x="10" y="130" width="110" height="50" as="geometry" />
        </mxCell>
        <mxCell id="e2OuPpJRNAq6PMt-S8a--9" value="&lt;span style=&quot;font-size: 14px;&quot;&gt;mejor_tiempo&lt;/span&gt;" style="ellipse;whiteSpace=wrap;html=1;rounded=0;" parent="1" vertex="1">
          <mxGeometry x="10" y="190" width="110" height="50" as="geometry" />
        </mxCell>
        <mxCell id="e2OuPpJRNAq6PMt-S8a--10" value="&lt;span style=&quot;font-size: 14px;&quot;&gt;altitud&lt;/span&gt;" style="ellipse;whiteSpace=wrap;html=1;rounded=0;" parent="1" vertex="1">
          <mxGeometry x="10" y="250" width="110" height="50" as="geometry" />
        </mxCell>
        <mxCell id="e2OuPpJRNAq6PMt-S8a--11" value="&lt;span style=&quot;font-size: 14px;&quot;&gt;lugar&lt;/span&gt;" style="ellipse;whiteSpace=wrap;html=1;rounded=0;" parent="1" vertex="1">
          <mxGeometry x="10" y="310" width="110" height="50" as="geometry" />
        </mxCell>
        <mxCell id="e2OuPpJRNAq6PMt-S8a--12" value="&lt;span style=&quot;font-size: 14px;&quot;&gt;pais&lt;/span&gt;" style="ellipse;whiteSpace=wrap;html=1;rounded=0;" parent="1" vertex="1">
          <mxGeometry x="10" y="370" width="110" height="50" as="geometry" />
        </mxCell>
        <mxCell id="e2OuPpJRNAq6PMt-S8a--13" value="&lt;span style=&quot;font-size: 14px;&quot;&gt;foto&lt;/span&gt;" style="ellipse;whiteSpace=wrap;html=1;rounded=0;" parent="1" vertex="1">
          <mxGeometry x="10" y="430" width="110" height="50" as="geometry" />
        </mxCell>
        <mxCell id="e2OuPpJRNAq6PMt-S8a--23" style="edgeStyle=orthogonalEdgeStyle;rounded=0;orthogonalLoop=1;jettySize=auto;html=1;entryX=1.009;entryY=0.36;entryDx=0;entryDy=0;entryPerimeter=0;" parent="1" source="e2OuPpJRNAq6PMt-S8a--1" target="e2OuPpJRNAq6PMt-S8a--13" edge="1">
          <mxGeometry relative="1" as="geometry" />
        </mxCell>
        <mxCell id="e2OuPpJRNAq6PMt-S8a--24" value="pertenece" style="rhombus;whiteSpace=wrap;html=1;" parent="1" vertex="1">
          <mxGeometry x="374" y="80" width="80" height="80" as="geometry" />
        </mxCell>
        <mxCell id="e2OuPpJRNAq6PMt-S8a--27" value="1" style="text;html=1;align=center;verticalAlign=middle;resizable=0;points=[];autosize=1;strokeColor=none;fillColor=none;" parent="1" vertex="1">
          <mxGeometry x="330" y="90" width="30" height="30" as="geometry" />
        </mxCell>
        <mxCell id="e2OuPpJRNAq6PMt-S8a--28" value="M" style="text;html=1;align=center;verticalAlign=middle;resizable=0;points=[];autosize=1;strokeColor=none;fillColor=none;" parent="1" vertex="1">
          <mxGeometry x="454" y="90" width="30" height="30" as="geometry" />
        </mxCell>
        <mxCell id="e2OuPpJRNAq6PMt-S8a--29" value="&lt;span style=&quot;font-size: 14px;&quot;&gt;&lt;u&gt;&lt;b&gt;pais_id&lt;/b&gt;&lt;/u&gt;&lt;/span&gt;" style="ellipse;whiteSpace=wrap;html=1;rounded=0;" parent="1" vertex="1">
          <mxGeometry x="205" y="440" width="110" height="50" as="geometry" />
        </mxCell>
        <mxCell id="e2OuPpJRNAq6PMt-S8a--30" value="&lt;span style=&quot;font-size: 14px;&quot;&gt;nombre&lt;/span&gt;" style="ellipse;whiteSpace=wrap;html=1;rounded=0;" parent="1" vertex="1">
          <mxGeometry x="344" y="440" width="110" height="50" as="geometry" />
        </mxCell>
        <mxCell id="e2OuPpJRNAq6PMt-S8a--33" value="corre en" style="rhombus;whiteSpace=wrap;html=1;" parent="1" vertex="1">
          <mxGeometry x="240" y="200" width="80" height="80" as="geometry" />
        </mxCell>
        <mxCell id="e2OuPpJRNAq6PMt-S8a--36" value="&lt;b&gt;&lt;u&gt;tipo_carrera&lt;/u&gt;&lt;/b&gt;" style="ellipse;whiteSpace=wrap;html=1;" parent="1" vertex="1">
          <mxGeometry x="454" y="10" width="106" height="50" as="geometry" />
        </mxCell>
        <mxCell id="e2OuPpJRNAq6PMt-S8a--37" value="descripcion" style="ellipse;whiteSpace=wrap;html=1;" parent="1" vertex="1">
          <mxGeometry x="580" y="10" width="110" height="50" as="geometry" />
        </mxCell>
        <mxCell id="e2OuPpJRNAq6PMt-S8a--38" value="distancia" style="ellipse;whiteSpace=wrap;html=1;" parent="1" vertex="1">
          <mxGeometry x="710" y="95" width="110" height="50" as="geometry" />
        </mxCell>
        <mxCell id="e2OuPpJRNAq6PMt-S8a--42" value="1" style="text;html=1;align=center;verticalAlign=middle;resizable=0;points=[];autosize=1;strokeColor=none;fillColor=none;" parent="1" vertex="1">
          <mxGeometry x="295" y="168" width="30" height="30" as="geometry" />
        </mxCell>
        <mxCell id="e2OuPpJRNAq6PMt-S8a--43" value="M" style="text;html=1;align=center;verticalAlign=middle;resizable=0;points=[];autosize=1;strokeColor=none;fillColor=none;" parent="1" vertex="1">
          <mxGeometry x="325" y="278" width="30" height="30" as="geometry" />
        </mxCell>
      </root>
    </mxGraphModel>
  </diagram>
</mxfile>
